STARTFONT 2.1
FONT -sun-timmons-medium-r-normal--24-240-75-75-p-136-adobe-fontspecific
SIZE 24 75 75
FONTBOUNDINGBOX 28 28 -4 -5

STARTPROPERTIES 28
FOUNDRY "sun"
FAMILY_NAME "timmons"
WEIGHT_NAME "medium"
SLANT "r"
SETWIDTH_NAME "normal"
ADD_STYLE_NAME ""
PIXEL_SIZE 25
POINT_SIZE 240
RESOLUTION_X 75
RESOLUTION_Y 75
SPACING "p"
AVERAGE_WIDTH 136
CHARSET_REGISTRY "adobe"
CHARSET_ENCODING "fontspecific"
COPYRIGHT "© 1999 Sun Microsystems, Inc."
RAW_PIXELSIZE 1000
RAW_POINTSIZE 964
RAW_ASCENT 932
RAW_DESCENT 196
RAW_AVERAGE_WIDTH 5454
FACE_NAME "TimmonsNormalnsB5"
_XMBDFED_INFO "Edited with xmbdfed 2.4."
WEIGHT 10
X_HEIGHT -2
QUAD_WIDTH 13
DEFAULT_CHAR 4
FONT_DESCENT 5
FONT_ASCENT 23
ENDPROPERTIES

CHARS 214

STARTCHAR char32
ENCODING 32
SWIDTH 28 0
DWIDTH 8 0
BBX 0 0 0 0
BITMAP
ENDCHAR

STARTCHAR char33
ENCODING 33
SWIDTH 25 0
DWIDTH 7 0
BBX 4 18 2 0
BITMAP
60
70
60
60
60
60
60
40
40
40
40
40
40
00
00
60
60
60
ENDCHAR

STARTCHAR char34
ENCODING 34
SWIDTH 35 0
DWIDTH 10 0
BBX 9 7 0 11
BITMAP
7300
FF80
7B80
1980
1980
3100
4200
ENDCHAR

STARTCHAR char35
ENCODING 35
SWIDTH 10 0
DWIDTH 13 0
BBX 12 18 0 0
BITMAP
0C60
0C60
0C40
0C40
08C0
7FF0
1FF0
18C0
18C0
1880
1880
FFF0
FFF0
3180
3180
3180
3100
3100
ENDCHAR

STARTCHAR char36
ENCODING 36
SWIDTH 10 0
DWIDTH 13 0
BBX 10 23 1 -3
BITMAP
0400
0400
1F00
65C0
C4C0
C440
C440
E440
F400
7C00
3E00
0F00
0780
05C0
84C0
84C0
84C0
C4C0
E5C0
7F80
0400
0400
0400
ENDCHAR

STARTCHAR char37
ENCODING 37
SWIDTH 31 0
DWIDTH 19 0
BBX 18 18 0 0
BITMAP
380800
6C0800
441800
C61000
C63000
C62000
C62000
C64700
C64880
4498C0
4C98C0
3918C0
0118C0
0218C0
0218C0
061880
040880
040700
ENDCHAR

STARTCHAR char38
ENCODING 38
SWIDTH 31 0
DWIDTH 19 0
BBX 18 18 0 0
BITMAP
03C000
066000
0C3000
0C3000
0C3000
0E6000
0FCF80
070700
0F0600
178400
238800
43C800
C1F000
C0F000
E07000
F0F840
7F9F80
3E0F00
ENDCHAR

STARTCHAR char39
ENCODING 39
SWIDTH 21 0
DWIDTH 6 0
BBX 4 7 1 11
BITMAP
20
40
40
C0
F0
F0
70
ENDCHAR

STARTCHAR char40
ENCODING 40
SWIDTH 28 0
DWIDTH 8 0
BBX 7 23 1 -5
BITMAP
04
08
10
30
20
60
60
E0
C0
C0
C0
C0
C0
C0
C0
40
60
20
30
10
08
04
02
ENDCHAR

STARTCHAR char41
ENCODING 41
SWIDTH 28 0
DWIDTH 8 0
BBX 7 23 0 -5
BITMAP
40
20
10
18
08
0C
04
06
06
06
06
06
06
06
0E
0C
0C
08
18
10
20
C0
80
ENDCHAR

STARTCHAR char42
ENCODING 42
SWIDTH 3 0
DWIDTH 11 0
BBX 9 10 1 8
BITMAP
1800
1800
9980
FB00
3C00
3C00
F700
DB00
1800
1800
ENDCHAR

STARTCHAR char43
ENCODING 43
SWIDTH 24 0
DWIDTH 17 0
BBX 15 15 0 0
BITMAP
0180
0180
0180
0180
0180
0180
0180
FFFE
0180
0180
0180
0180
0180
0180
0180
ENDCHAR

STARTCHAR char44
ENCODING 44
SWIDTH 21 0
DWIDTH 6 0
BBX 4 8 1 -5
BITMAP
E0
F0
F0
30
30
20
40
80
ENDCHAR

STARTCHAR char45
ENCODING 45
SWIDTH 25 0
DWIDTH 7 0
BBX 6 2 1 5
BITMAP
FC
FC
ENDCHAR

STARTCHAR char46
ENCODING 46
SWIDTH 21 0
DWIDTH 6 0
BBX 2 3 2 0
BITMAP
C0
C0
C0
ENDCHAR

STARTCHAR char47
ENCODING 47
SWIDTH 35 0
DWIDTH 10 0
BBX 10 18 0 0
BITMAP
0180
0180
0380
0300
0300
0600
0600
0E00
0C00
0C00
1800
1800
3800
3000
3000
6000
6000
E000
ENDCHAR

STARTCHAR char48
ENCODING 48
SWIDTH 6 0
DWIDTH 12 0
BBX 10 18 1 0
BITMAP
1E00
2300
6180
4180
4080
C0C0
C0C0
C0C0
C0C0
C0C0
C0C0
C0C0
C0C0
4080
4180
6180
2300
1E00
ENDCHAR

STARTCHAR char49
ENCODING 49
SWIDTH 6 0
DWIDTH 12 0
BBX 8 18 2 0
BITMAP
08
78
B8
18
18
18
18
18
18
18
18
18
18
18
18
18
18
FF
ENDCHAR

STARTCHAR char50
ENCODING 50
SWIDTH 6 0
DWIDTH 12 0
BBX 11 18 0 0
BITMAP
1E00
3F80
6380
41C0
81C0
00C0
00C0
0080
0180
0180
0300
0600
0C00
0800
1800
3020
7FC0
FFC0
ENDCHAR

STARTCHAR char51
ENCODING 51
SWIDTH 6 0
DWIDTH 12 0
BBX 10 18 0 0
BITMAP
1E00
3F00
4380
4180
0180
0180
0300
0600
1F00
0780
01C0
01C0
00C0
00C0
0080
4180
F300
7C00
ENDCHAR

STARTCHAR char52
ENCODING 52
SWIDTH 6 0
DWIDTH 12 0
BBX 11 18 0 0
BITMAP
0080
0180
0380
0380
0580
0980
0980
1180
2180
2180
4180
FFE0
FFE0
0180
0180
0180
0180
0180
ENDCHAR

STARTCHAR char53
ENCODING 53
SWIDTH 6 0
DWIDTH 12 0
BBX 10 18 0 0
BITMAP
0FC0
0FC0
1000
1000
2000
3800
7E00
1F00
0780
0180
01C0
00C0
00C0
00C0
0080
0180
E300
7C00
ENDCHAR

STARTCHAR char54
ENCODING 54
SWIDTH 6 0
DWIDTH 12 0
BBX 10 18 1 0
BITMAP
0380
0C00
1800
3000
3000
6000
6000
FF00
E380
C180
C1C0
C0C0
C0C0
C0C0
40C0
6080
3180
1E00
ENDCHAR

STARTCHAR char55
ENCODING 55
SWIDTH 6 0
DWIDTH 12 0
BBX 11 18 0 0
BITMAP
3FE0
7FC0
40C0
80C0
8080
0080
0180
0100
0100
0300
0300
0200
0600
0600
0400
0400
0C00
0800
ENDCHAR

STARTCHAR char56
ENCODING 56
SWIDTH 6 0
DWIDTH 12 0
BBX 9 18 1 0
BITMAP
1E00
6300
4180
C180
C180
6180
7300
3A00
3C00
1E00
2700
6380
C180
C180
C180
C180
6100
3E00
ENDCHAR

STARTCHAR char57
ENCODING 57
SWIDTH 6 0
DWIDTH 12 0
BBX 11 19 0 -1
BITMAP
1F00
3180
61C0
40C0
C0E0
C060
C0E0
E0E0
E0E0
71E0
3EC0
01C0
01C0
0380
0300
0600
0C00
3800
C000
ENDCHAR

STARTCHAR char58
ENCODING 58
SWIDTH 25 0
DWIDTH 7 0
BBX 2 12 3 0
BITMAP
C0
C0
C0
00
00
00
00
00
00
C0
C0
C0
ENDCHAR

STARTCHAR char59
ENCODING 59
SWIDTH 25 0
DWIDTH 7 0
BBX 4 17 2 -5
BITMAP
60
E0
60
00
00
00
00
00
00
00
E0
F0
F0
30
20
40
80
ENDCHAR

STARTCHAR char60
ENCODING 60
SWIDTH 13 0
DWIDTH 14 0
BBX 13 13 0 0
BITMAP
0008
0038
00F0
0380
1E00
7800
E000
F000
1C00
0780
01E0
0078
0018
ENDCHAR

STARTCHAR char61
ENCODING 61
SWIDTH 24 0
DWIDTH 17 0
BBX 17 5 -1 5
BITMAP
FFFF80
000000
000000
000000
FFFF80
ENDCHAR

STARTCHAR char62
ENCODING 62
SWIDTH 13 0
DWIDTH 14 0
BBX 13 13 0 0
BITMAP
8000
E000
3C00
0F00
03C0
00F0
0018
0078
01E0
0780
1C00
F000
C000
ENDCHAR

STARTCHAR char63
ENCODING 63
SWIDTH 3 0
DWIDTH 11 0
BBX 8 18 1 0
BITMAP
3C
46
83
C3
C3
43
03
06
04
08
08
08
08
00
00
18
18
18
ENDCHAR

STARTCHAR char64
ENCODING 64
SWIDTH 24 0
DWIDTH 27 0
BBX 18 20 4 -1
BITMAP
01F000
07F800
1C0E00
300700
600180
63ED80
C7FCC0
CE1CC0
CC18C0
DC18C0
D818C0
D83180
D83100
DC7300
4FFE00
679980
300380
1C0F00
07FC00
01F000
ENDCHAR

STARTCHAR char65
ENCODING 65
SWIDTH 31 0
DWIDTH 19 0
BBX 19 18 -1 0
BITMAP
002000
006000
006000
00E000
00F000
01F000
013800
013800
021C00
021C00
040C00
07FE00
080600
080700
180700
100300
300380
FC0FE0
ENDCHAR

STARTCHAR char66
ENCODING 66
SWIDTH 21 0
DWIDTH 16 0
BBX 14 18 0 0
BITMAP
FFC0
3860
1830
1818
1818
1818
1838
1870
1FC0
1870
1838
181C
181C
181C
181C
1818
3870
FFE0
ENDCHAR

STARTCHAR char67
ENCODING 67
SWIDTH 28 0
DWIDTH 18 0
BBX 16 18 1 0
BITMAP
03E2
0E1E
1806
3006
7002
6002
E000
C000
C000
C000
C000
E000
E000
7002
7002
3806
1E18
07E0
ENDCHAR

STARTCHAR char68
ENCODING 68
SWIDTH 35 0
DWIDTH 20 0
BBX 18 18 0 0
BITMAP
FFF000
383C00
180F00
180700
180380
180180
1801C0
1800C0
1800C0
1800C0
1800C0
1801C0
1801C0
180380
180700
180F00
381C00
FFF000
ENDCHAR

STARTCHAR char69
ENCODING 69
SWIDTH 21 0
DWIDTH 16 0
BBX 15 18 0 0
BITMAP
FFFC
381C
180C
1804
1800
1800
1810
1810
1FF0
1810
1810
1810
1800
1802
1802
1806
380C
FFFC
ENDCHAR

STARTCHAR char70
ENCODING 70
SWIDTH 17 0
DWIDTH 15 0
BBX 15 18 0 0
BITMAP
FFFC
380C
1806
1802
1800
1808
1808
1818
1FF8
1818
1808
1808
1800
1800
1800
1800
3800
FF00
ENDCHAR

STARTCHAR char71
ENCODING 71
SWIDTH 35 0
DWIDTH 20 0
BBX 18 18 1 0
BITMAP
03F200
0E0E00
180600
300200
600200
600200
C00000
C00000
C03FC0
C00F00
C00700
E00700
600700
700700
300700
380600
0E0E00
07F800
ENDCHAR

STARTCHAR char72
ENCODING 72
SWIDTH 35 0
DWIDTH 20 0
BBX 19 18 0 0
BITMAP
FF1FE0
3C0780
180700
180700
180700
180700
180700
180700
1FFF00
180300
180300
180300
180300
180300
180300
180300
380700
FF1FE0
ENDCHAR

STARTCHAR char73
ENCODING 73
SWIDTH 32 0
DWIDTH 9 0
BBX 8 18 0 0
BITMAP
FF
3C
18
18
18
18
18
18
18
18
18
18
18
18
18
18
38
FF
ENDCHAR

STARTCHAR char74
ENCODING 74
SWIDTH 35 0
DWIDTH 10 0
BBX 10 18 0 0
BITMAP
3FC0
0F00
0600
0600
0600
0600
0600
0600
0600
0600
0600
0600
0600
0600
0600
6600
E400
7800
ENDCHAR

STARTCHAR char75
ENCODING 75
SWIDTH 28 0
DWIDTH 18 0
BBX 18 18 0 0
BITMAP
FF3F00
3C1C00
181800
183000
182000
184000
188000
190000
1F0000
1F8000
19C000
19E000
18F000
187800
183C00
181C00
3C0E00
FF3FC0
ENDCHAR

STARTCHAR char76
ENCODING 76
SWIDTH 17 0
DWIDTH 15 0
BBX 15 18 0 0
BITMAP
FF00
3C00
1800
1800
1800
1800
1800
1800
1800
1800
1800
1800
1800
1802
1802
1804
3C1C
FFFC
ENDCHAR

STARTCHAR char77
ENCODING 77
SWIDTH 9 0
DWIDTH 23 0
BBX 22 18 0 0
BITMAP
F8007C
3C00F0
3C00E0
3C01E0
3E01E0
360160
370260
330260
338460
338460
31C860
31C860
30F060
30F060
307060
306060
302060
FC21FC
ENDCHAR

STARTCHAR char78
ENCODING 78
SWIDTH 31 0
DWIDTH 19 0
BBX 19 18 -1 0
BITMAP
FC07E0
3C0180
1E0180
1F0180
1F8180
1B8180
19C180
18E180
187180
187980
183980
181D80
180F80
180700
180700
180300
180100
1E0100
ENDCHAR

STARTCHAR char79
ENCODING 79
SWIDTH 31 0
DWIDTH 19 0
BBX 16 18 1 0
BITMAP
07C0
0C30
1018
3008
600C
600E
C006
C007
C007
C006
C006
C006
6006
600C
700C
3018
1C30
07E0
ENDCHAR

STARTCHAR char80
ENCODING 80
SWIDTH 13 0
DWIDTH 14 0
BBX 13 18 0 0
BITMAP
FFC0
38E0
1830
1818
1818
1818
1818
1830
1870
1FC0
1800
1800
1800
1800
1800
1800
3C00
FF00
ENDCHAR

STARTCHAR char81
ENCODING 81
SWIDTH 31 0
DWIDTH 19 0
BBX 16 23 1 -5
BITMAP
07C0
0C30
3018
3008
600C
600C
C006
C006
C006
C006
C006
C006
6006
600C
700C
3018
1C30
07E0
03C0
01E0
00F0
003C
0007
ENDCHAR

STARTCHAR char82
ENCODING 82
SWIDTH 24 0
DWIDTH 17 0
BBX 17 18 0 0
BITMAP
FFC000
38F000
183000
181800
181800
181800
181800
183000
18E000
1FC000
19C000
18E000
187000
183000
183800
181C00
380E00
FF0780
ENDCHAR

STARTCHAR char83
ENCODING 83
SWIDTH 13 0
DWIDTH 14 0
BBX 11 18 1 0
BITMAP
1F40
31C0
6040
6040
6040
7040
3800
3C00
1F00
0780
03C0
00E0
80E0
8060
C060
C0C0
F1C0
CF00
ENDCHAR

STARTCHAR char84
ENCODING 84
SWIDTH 24 0
DWIDTH 17 0
BBX 15 18 0 0
BITMAP
FFFE
E386
8182
8182
0180
0180
0180
0180
0180
0180
0180
0180
0180
0180
0180
0180
0380
0FF0
ENDCHAR

STARTCHAR char85
ENCODING 85
SWIDTH 31 0
DWIDTH 19 0
BBX 18 18 0 0
BITMAP
FE0FC0
780380
300100
300100
300100
300100
300100
300100
300100
300100
300100
300100
300100
300100
380200
1C0600
0E0C00
03F800
ENDCHAR

STARTCHAR char86
ENCODING 86
SWIDTH 28 0
DWIDTH 18 0
BBX 19 18 -1 0
BITMAP
FF07E0
7C0180
3C0180
1C0100
1C0300
0E0200
0E0200
070600
070400
078C00
038800
039800
01D000
01F000
00E000
00E000
004000
004000
ENDCHAR

STARTCHAR char87
ENCODING 87
SWIDTH 16 0
DWIDTH 25 0
BBX 25 18 -1 0
BITMAP
FE7F1F80
381C0600
380C0400
1C0E0C00
1C0E0C00
0E0E0800
0E0E0800
0F0F1800
07131000
07131000
03A3B000
03A1A000
03E1E000
01C0E000
01C0C000
0080C000
00808000
00808000
ENDCHAR

STARTCHAR char88
ENCODING 88
SWIDTH 28 0
DWIDTH 18 0
BBX 19 18 -1 0
BITMAP
FF8FC0
3E0300
1E0200
0F0400
070800
079800
03D000
01E000
00E000
00E000
00F000
013800
023800
041C00
0C1C00
180E00
300F00
FC3FE0
ENDCHAR

STARTCHAR char89
ENCODING 89
SWIDTH 28 0
DWIDTH 18 0
BBX 19 18 -1 0
BITMAP
FF07E0
1C0180
0E0300
0E0200
070600
078400
038C00
03C800
01F000
00F000
00E000
00E000
00E000
006000
006000
006000
00E000
03FC00
ENDCHAR

STARTCHAR char90
ENCODING 90
SWIDTH 21 0
DWIDTH 16 0
BBX 15 18 0 0
BITMAP
7FFC
603C
4038
4070
40F0
00E0
01C0
03C0
0380
0700
0700
0E00
1C00
1C02
3802
7006
700C
FFFC
ENDCHAR

STARTCHAR char91
ENCODING 91
SWIDTH 21 0
DWIDTH 6 0
BBX 5 22 1 -4
BITMAP
F8
C0
C0
C0
C0
C0
C0
C0
C0
C0
C0
C0
C0
C0
C0
C0
C0
C0
C0
C0
C0
F8
ENDCHAR

STARTCHAR char92
ENCODING 92
SWIDTH 25 0
DWIDTH 7 0
BBX 7 18 0 0
BITMAP
C0
C0
40
40
60
60
20
30
30
10
18
18
08
0C
0C
04
06
06
ENDCHAR

STARTCHAR char93
ENCODING 93
SWIDTH 21 0
DWIDTH 6 0
BBX 5 22 0 -4
BITMAP
F8
18
18
18
18
18
18
18
18
18
18
18
18
18
18
18
18
18
18
18
18
F8
ENDCHAR

STARTCHAR char94
ENCODING 94
SWIDTH 0 0
DWIDTH 0 0
BBX 8 3 -4 19
BITMAP
3C
7E
81
ENDCHAR

STARTCHAR char95
ENCODING 95
SWIDTH 17 0
DWIDTH 15 0
BBX 14 1 0 -3
BITMAP
FFFC
ENDCHAR

STARTCHAR char96
ENCODING 96
SWIDTH 0 0
DWIDTH 0 0
BBX 4 4 -3 14
BITMAP
E0
60
20
10
ENDCHAR

STARTCHAR char97
ENCODING 97
SWIDTH 3 0
DWIDTH 11 0
BBX 10 12 1 0
BITMAP
3E00
4300
4300
4300
0700
1B00
6300
C300
C300
C300
EFC0
7380
ENDCHAR

STARTCHAR char98
ENCODING 98
SWIDTH 10 0
DWIDTH 13 0
BBX 12 18 0 0
BITMAP
1000
7000
7000
3000
3000
3000
37C0
3FE0
3060
3070
3030
3030
3030
3030
3020
3060
38C0
0F80
ENDCHAR

STARTCHAR char99
ENCODING 99
SWIDTH 3 0
DWIDTH 11 0
BBX 9 12 1 0
BITMAP
1E00
2380
4180
C000
C000
C000
C000
C080
E080
6100
3F00
1E00
ENDCHAR

STARTCHAR char100
ENCODING 100
SWIDTH 10 0
DWIDTH 13 0
BBX 12 18 1 0
BITMAP
0040
03C0
00C0
00C0
00C0
00C0
3FC0
61C0
40C0
C0C0
C0C0
C0C0
C0C0
C0C0
C0C0
60C0
73F0
3E80
ENDCHAR

STARTCHAR char101
ENCODING 101
SWIDTH 6 0
DWIDTH 12 0
BBX 11 12 0 0
BITMAP
1F00
6180
60C0
C0C0
FFC0
C000
C000
E020
E020
7040
3F80
1F00
ENDCHAR

STARTCHAR char102
ENCODING 102
SWIDTH 25 0
DWIDTH 7 0
BBX 10 19 1 0
BITMAP
0780
19C0
11C0
3080
3000
3000
3000
FE00
7000
7000
7000
7000
7000
7000
7000
7000
7000
7000
F800
ENDCHAR

STARTCHAR char103
ENCODING 103
SWIDTH 6 0
DWIDTH 12 0
BBX 11 16 0 -4
BITMAP
1E20
21E0
61C0
60C0
60C0
71C0
3980
1E00
2000
7FC0
3FE0
2060
4020
C020
EFC0
3F00
ENDCHAR

STARTCHAR char104
ENCODING 104
SWIDTH 13 0
DWIDTH 14 0
BBX 13 18 0 0
BITMAP
1000
7000
3000
3000
3000
3000
33C0
37C0
3860
3060
3060
3060
3060
3060
3060
3060
3060
FDF8
ENDCHAR

STARTCHAR char105
ENCODING 105
SWIDTH 21 0
DWIDTH 6 0
BBX 6 18 0 0
BITMAP
30
30
30
00
00
10
30
F0
30
30
30
30
30
30
30
30
30
FC
ENDCHAR

STARTCHAR char106
ENCODING 106
SWIDTH 21 0
DWIDTH 6 0
BBX 6 22 -2 -4
BITMAP
0C
0C
0C
00
00
04
0C
3C
0C
04
04
04
04
04
04
04
04
04
0C
08
C8
F0
ENDCHAR

STARTCHAR char107
ENCODING 107
SWIDTH 6 0
DWIDTH 12 0
BBX 12 18 0 0
BITMAP
1000
7000
3000
3000
3000
3000
33E0
3100
3200
3200
3400
3C00
3600
3300
3300
3180
31C0
FFF0
ENDCHAR

STARTCHAR char108
ENCODING 108
SWIDTH 21 0
DWIDTH 6 0
BBX 6 18 0 0
BITMAP
10
70
30
30
30
30
30
30
30
30
30
30
30
30
30
30
30
FC
ENDCHAR

STARTCHAR char109
ENCODING 109
SWIDTH 2 0
DWIDTH 21 0
BBX 20 12 0 0
BITMAP
33CF80
FCF9C0
3060C0
3060C0
3060C0
3060C0
3060C0
3060C0
3060C0
3060C0
3060C0
FDFBF0
ENDCHAR

STARTCHAR char110
ENCODING 110
SWIDTH 13 0
DWIDTH 14 0
BBX 13 12 0 0
BITMAP
33C0
F4E0
3860
3060
3060
3060
3060
3060
3060
3060
3060
FDF8
ENDCHAR

STARTCHAR char111
ENCODING 111
SWIDTH 10 0
DWIDTH 13 0
BBX 11 12 1 0
BITMAP
3F80
61C0
60C0
C0E0
C060
C060
C060
C060
C040
60C0
3180
1F00
ENDCHAR

STARTCHAR char112
ENCODING 112
SWIDTH 10 0
DWIDTH 13 0
BBX 11 16 0 -4
BITMAP
F780
39C0
30E0
3060
3060
3060
3060
3060
3060
3040
3880
3F00
3000
3000
3000
FC00
ENDCHAR

STARTCHAR char113
ENCODING 113
SWIDTH 10 0
DWIDTH 13 0
BBX 12 16 1 -4
BITMAP
1FC0
20C0
40C0
C0C0
C0C0
C0C0
C0C0
C0C0
E0C0
71C0
7FC0
3CC0
00C0
00C0
00C0
03F0
ENDCHAR

STARTCHAR char114
ENCODING 114
SWIDTH 32 0
DWIDTH 9 0
BBX 8 12 0 0
BITMAP
37
7B
30
30
30
30
30
30
30
30
30
FC
ENDCHAR

STARTCHAR char115
ENCODING 115
SWIDTH 35 0
DWIDTH 10 0
BBX 8 12 1 0
BITMAP
3E
C2
C2
C2
F0
7C
1E
0F
83
83
C6
BC
ENDCHAR

STARTCHAR char116
ENCODING 116
SWIDTH 25 0
DWIDTH 7 0
BBX 8 16 0 0
BITMAP
10
10
10
70
FE
30
30
30
30
30
30
30
30
31
3E
1C
ENDCHAR

STARTCHAR char117
ENCODING 117
SWIDTH 13 0
DWIDTH 14 0
BBX 13 12 0 0
BITMAP
F1E0
3060
3060
3060
3060
3060
3060
3060
3060
30E0
3F78
1E60
ENDCHAR

STARTCHAR char118
ENCODING 118
SWIDTH 6 0
DWIDTH 12 0
BBX 12 12 -1 0
BITMAP
7C70
3060
3840
3840
1840
1C80
0C80
0F00
0700
0700
0200
0200
ENDCHAR

STARTCHAR char119
ENCODING 119
SWIDTH 28 0
DWIDTH 18 0
BBX 18 12 -1 0
BITMAP
78E1C0
186080
186100
186100
0CF300
0CB200
0CB200
071C00
071C00
061C00
020800
020800
ENDCHAR

STARTCHAR char120
ENCODING 120
SWIDTH 6 0
DWIDTH 12 0
BBX 12 12 0 0
BITMAP
78F0
3880
1D80
1D00
0E00
0600
0700
0B80
1980
31C0
20E0
F9F0
ENDCHAR

STARTCHAR char121
ENCODING 121
SWIDTH 6 0
DWIDTH 12 0
BBX 12 16 0 -4
BITMAP
F9F0
3060
3040
30C0
1880
1980
1900
0D00
0E00
0600
0400
0400
0400
0800
7000
7000
ENDCHAR

STARTCHAR char122
ENCODING 122
SWIDTH 3 0
DWIDTH 11 0
BBX 11 12 0 0
BITMAP
7FE0
41C0
4180
0380
0700
0E00
0C00
1C00
3820
3020
6060
FFE0
ENDCHAR

STARTCHAR char123
ENCODING 123
SWIDTH 32 0
DWIDTH 9 0
BBX 6 23 1 -5
BITMAP
1C
3C
30
30
30
30
30
30
30
30
60
C0
60
30
30
30
30
30
30
30
30
3C
1C
ENDCHAR

STARTCHAR char124
ENCODING 124
SWIDTH 25 0
DWIDTH 7 0
BBX 2 18 2 0
BITMAP
C0
C0
C0
C0
C0
C0
C0
C0
C0
C0
C0
C0
C0
C0
C0
C0
C0
C0
ENDCHAR

STARTCHAR char125
ENCODING 125
SWIDTH 32 0
DWIDTH 9 0
BBX 6 23 1 -5
BITMAP
E0
F0
30
30
30
30
30
30
30
38
1C
0C
18
38
30
30
30
30
30
30
30
F0
E0
ENDCHAR

STARTCHAR char126
ENCODING 126
SWIDTH 0 0
DWIDTH 0 0
BBX 8 3 -4 19
BITMAP
71
FF
86
ENDCHAR

STARTCHAR char128
ENCODING 128
SWIDTH 6 0
DWIDTH 12 0
BBX 12 17 0 0
BITMAP
07C0
0C70
1830
3010
3010
7000
6000
FFC0
6000
FFC0
6000
6000
7000
3000
3010
1860
0F80
ENDCHAR

STARTCHAR char130
ENCODING 130
SWIDTH 21 0
DWIDTH 6 0
BBX 4 8 1 -5
BITMAP
E0
F0
F0
30
30
20
40
80
ENDCHAR

STARTCHAR char131
ENCODING 131
SWIDTH 0 0
DWIDTH 0 0
BBX 8 3 -4 19
BITMAP
3C
7E
81
ENDCHAR

STARTCHAR char132
ENCODING 132
SWIDTH 35 0
DWIDTH 10 0
BBX 9 7 0 -4
BITMAP
6300
F380
7380
3180
3180
2100
C200
ENDCHAR

STARTCHAR char133
ENCODING 133
SWIDTH 24 0
DWIDTH 27 0
BBX 19 3 3 0
BITMAP
C0C060
C0C060
C0C060
ENDCHAR

STARTCHAR char134
ENCODING 134
SWIDTH 3 0
DWIDTH 11 0
BBX 10 22 0 -4
BITMAP
0C00
0E00
0E00
0C00
65C0
7FC0
75C0
0400
0E00
0E00
0C00
0C00
0400
0400
0400
0400
0400
0400
0400
0400
0400
0400
ENDCHAR

STARTCHAR char135
ENCODING 135
SWIDTH 16 0
DWIDTH 25 0
BBX 0 0 0 0
BITMAP
ENDCHAR

STARTCHAR char136
ENCODING 136
SWIDTH 0 0
DWIDTH 0 0
BBX 8 4 -4 14
BITMAP
3C
3C
66
43
ENDCHAR

STARTCHAR char137
ENCODING 137
SWIDTH 16 0
DWIDTH 25 0
BBX 0 0 0 0
BITMAP
ENDCHAR

STARTCHAR char138
ENCODING 138
SWIDTH 16 0
DWIDTH 25 0
BBX 0 0 0 0
BITMAP
ENDCHAR

STARTCHAR char139
ENCODING 139
SWIDTH 32 0
DWIDTH 9 0
BBX 4 8 2 3
BITMAP
10
30
70
C0
C0
60
30
10
ENDCHAR

STARTCHAR char140
ENCODING 140
SWIDTH 16 0
DWIDTH 25 0
BBX 23 18 1 0
BITMAP
07FFF8
187818
303008
303008
603000
603010
C03010
C03030
C03FF0
C03030
C03010
C03010
E03000
603002
603002
303004
18780C
0FFFFC
ENDCHAR

STARTCHAR char141
ENCODING 141
SWIDTH 16 0
DWIDTH 25 0
BBX 0 0 0 0
BITMAP
ENDCHAR

STARTCHAR char143
ENCODING 143
SWIDTH 16 0
DWIDTH 25 0
BBX 0 0 0 0
BITMAP
ENDCHAR

STARTCHAR char145
ENCODING 145
SWIDTH 21 0
DWIDTH 6 0
BBX 4 7 1 11
BITMAP
20
40
40
C0
F0
F0
70
ENDCHAR

STARTCHAR char146
ENCODING 146
SWIDTH 21 0
DWIDTH 6 0
BBX 4 7 1 11
BITMAP
60
F0
70
30
30
20
40
ENDCHAR

STARTCHAR char147
ENCODING 147
SWIDTH 35 0
DWIDTH 10 0
BBX 10 7 0 11
BITMAP
1DC0
2300
4600
C600
F780
F780
7380
ENDCHAR

STARTCHAR char148
ENCODING 148
SWIDTH 35 0
DWIDTH 10 0
BBX 9 7 0 11
BITMAP
7300
FF80
7B80
1980
1980
3100
4200
ENDCHAR

STARTCHAR char149
ENCODING 149
SWIDTH 32 0
DWIDTH 9 0
BBX 7 6 1 6
BITMAP
38
7C
FE
FE
FE
38
ENDCHAR

STARTCHAR char150
ENCODING 150
SWIDTH 6 0
DWIDTH 12 0
BBX 10 2 1 5
BITMAP
FFC0
FFC0
ENDCHAR

STARTCHAR char151
ENCODING 151
SWIDTH 24 0
DWIDTH 17 0
BBX 17 1 -1 7
BITMAP
FFFF80
ENDCHAR

STARTCHAR char152
ENCODING 152
SWIDTH 0 0
DWIDTH 0 0
BBX 8 4 -4 14
BITMAP
01
71
FF
80
ENDCHAR

STARTCHAR char153
ENCODING 153
SWIDTH 6 0
DWIDTH 22 0
BBX 20 10 0 7
BITMAP
FFE070
9B2060
9930A0
1830E0
183960
183960
182D60
182E60
182660
3864F0
ENDCHAR

STARTCHAR char154
ENCODING 154
SWIDTH 16 0
DWIDTH 25 0
BBX 0 0 0 0
BITMAP
ENDCHAR

STARTCHAR char155
ENCODING 155
SWIDTH 32 0
DWIDTH 9 0
BBX 4 8 2 3
BITMAP
80
C0
70
30
30
70
C0
80
ENDCHAR

STARTCHAR char156
ENCODING 156
SWIDTH 2 0
DWIDTH 21 0
BBX 19 13 1 0
BITMAP
000200
1E1F80
2191C0
40E0C0
C0E0C0
C07FE0
C06000
C06000
C06020
C0F020
60F8C0
219FC0
1E0F00
ENDCHAR

STARTCHAR char157
ENCODING 157
SWIDTH 16 0
DWIDTH 25 0
BBX 0 0 0 0
BITMAP
ENDCHAR

STARTCHAR char159
ENCODING 159
SWIDTH 28 0
DWIDTH 18 0
BBX 19 22 -1 0
BITMAP
061C00
061C00
061C00
000000
FE07E0
1C0180
0C0300
0C0200
060600
070C00
030C00
019000
01E000
00E000
00C000
00C000
00C000
00C000
00C000
00C000
00E000
03FC00
ENDCHAR

STARTCHAR char160
ENCODING 160
SWIDTH 6 0
DWIDTH 12 0
BBX 0 0 0 0
BITMAP
ENDCHAR

STARTCHAR char161
ENCODING 161
SWIDTH 25 0
DWIDTH 7 0
BBX 3 18 1 0
BITMAP
60
E0
60
00
00
20
20
20
20
20
60
60
60
60
60
60
60
60
ENDCHAR

STARTCHAR char162
ENCODING 162
SWIDTH 3 0
DWIDTH 11 0
BBX 9 18 1 -3
BITMAP
0800
0800
0800
3F00
6B80
4980
C800
C800
C800
C800
C880
E880
6900
7F00
3E00
0800
0800
0800
ENDCHAR

STARTCHAR char163
ENCODING 163
SWIDTH 10 0
DWIDTH 13 0
BBX 12 18 0 0
BITMAP
03C0
0C60
0860
1820
1800
1800
1800
1800
7FC0
0C00
0C00
0C00
0C00
0C00
0C10
7810
9FF0
63E0
ENDCHAR

STARTCHAR char164
ENCODING 164
SWIDTH 0 0
DWIDTH 0 0
BBX 5 3 -2 19
BITMAP
78
60
80
ENDCHAR

STARTCHAR char165
ENCODING 165
SWIDTH 0 0
DWIDTH 0 0
BBX 8 4 -4 19
BITMAP
80
66
3C
18
ENDCHAR

STARTCHAR char166
ENCODING 166
SWIDTH 16 0
DWIDTH 25 0
BBX 0 0 0 0
BITMAP
ENDCHAR

STARTCHAR char167
ENCODING 167
SWIDTH 32 0
DWIDTH 9 0
BBX 9 22 0 -4
BITMAP
1C00
2300
6300
6300
7000
3800
3C00
2E00
4700
8300
8180
C080
C100
7100
3B00
1C00
0E00
0700
6300
6100
6200
3C00
ENDCHAR

STARTCHAR char168
ENCODING 168
SWIDTH 0 0
DWIDTH 0 0
BBX 7 3 -3 14
BITMAP
C6
C6
C6
ENDCHAR

STARTCHAR char169
ENCODING 169
SWIDTH 35 0
DWIDTH 20 0
BBX 16 16 1 0
BITMAP
07E0
1818
2004
4002
47F2
8C11
9811
9801
9801
9801
8C01
4E22
43C2
2004
1818
07E0
ENDCHAR

STARTCHAR char170
ENCODING 170
SWIDTH 0 0
DWIDTH 0 0
BBX 8 3 -4 19
BITMAP
C3
C3
C3
ENDCHAR

STARTCHAR char171
ENCODING 171
SWIDTH 6 0
DWIDTH 12 0
BBX 11 11 0 1
BITMAP
0820
1840
30C0
6180
6300
E300
6180
3180
10C0
0840
0820
ENDCHAR

STARTCHAR char172
ENCODING 172
SWIDTH 28 0
DWIDTH 18 0
BBX 16 7 0 0
BITMAP
FFFF
0003
0003
0003
0003
0003
0003
ENDCHAR

STARTCHAR char173
ENCODING 173
SWIDTH 16 0
DWIDTH 25 0
BBX 0 0 0 0
BITMAP
ENDCHAR

STARTCHAR char174
ENCODING 174
SWIDTH 35 0
DWIDTH 20 0
BBX 16 16 1 0
BITMAP
07E0
1818
2004
4FE2
4632
8631
8671
8781
86C1
86C1
8661
8632
4F3A
2004
1018
0FE0
ENDCHAR

STARTCHAR char175
ENCODING 175
SWIDTH 16 0
DWIDTH 25 0
BBX 0 0 0 0
BITMAP
ENDCHAR

STARTCHAR char176
ENCODING 176
SWIDTH 35 0
DWIDTH 10 0
BBX 7 8 1 9
BITMAP
38
44
82
82
82
82
44
38
ENDCHAR

STARTCHAR char177
ENCODING 177
SWIDTH 13 0
DWIDTH 14 0
BBX 13 16 0 0
BITMAP
0600
0600
0600
0600
0600
0600
FFF8
0600
0600
0600
0600
0600
0600
0000
0000
FFF8
ENDCHAR

STARTCHAR char178
ENCODING 178
SWIDTH 16 0
DWIDTH 25 0
BBX 0 0 0 0
BITMAP
ENDCHAR

STARTCHAR char179
ENCODING 179
SWIDTH 16 0
DWIDTH 25 0
BBX 0 0 0 0
BITMAP
ENDCHAR

STARTCHAR char180
ENCODING 180
SWIDTH 0 0
DWIDTH 0 0
BBX 4 4 -1 14
BITMAP
70
60
40
80
ENDCHAR

STARTCHAR char181
ENCODING 181
SWIDTH 16 0
DWIDTH 25 0
BBX 0 0 0 0
BITMAP
ENDCHAR

STARTCHAR char182
ENCODING 182
SWIDTH 28 0
DWIDTH 18 0
BBX 11 22 2 -4
BITMAP
1FE0
3C60
7C60
FC60
FC60
FC60
FC60
7C60
7C60
3C60
0C60
0C60
0C60
0C60
0C60
0C60
0C60
0C60
0C60
0C60
0C60
0C60
ENDCHAR

STARTCHAR char183
ENCODING 183
SWIDTH 14 0
DWIDTH 4 0
BBX 2 3 1 6
BITMAP
C0
C0
C0
ENDCHAR

STARTCHAR char184
ENCODING 184
SWIDTH 0 0
DWIDTH 0 0
BBX 4 5 -2 -5
BITMAP
20
20
70
30
E0
ENDCHAR

STARTCHAR char186
ENCODING 186
SWIDTH 0 0
DWIDTH 0 0
BBX 8 3 -4 19
BITMAP
71
FF
86
ENDCHAR

STARTCHAR char187
ENCODING 187
SWIDTH 6 0
DWIDTH 12 0
BBX 11 11 0 1
BITMAP
8200
4100
2180
3080
18C0
1C60
18C0
3080
2180
4100
8200
ENDCHAR

STARTCHAR char188
ENCODING 188
SWIDTH 16 0
DWIDTH 25 0
BBX 0 0 0 0
BITMAP
ENDCHAR

STARTCHAR char189
ENCODING 189
SWIDTH 16 0
DWIDTH 25 0
BBX 0 0 0 0
BITMAP
ENDCHAR

STARTCHAR char191
ENCODING 191
SWIDTH 35 0
DWIDTH 10 0
BBX 8 18 1 0
BITMAP
18
18
18
00
00
08
08
10
10
20
60
40
C0
C3
C3
C1
62
3C
ENDCHAR

STARTCHAR char192
ENCODING 192
SWIDTH 31 0
DWIDTH 19 0
BBX 19 22 -1 0
BITMAP
03C000
00E000
002000
000000
002000
006000
006000
00E000
00F000
01F000
013800
013800
021C00
021C00
040C00
07FE00
080600
080700
180700
100300
300380
FC0FE0
ENDCHAR

STARTCHAR char193
ENCODING 193
SWIDTH 31 0
DWIDTH 19 0
BBX 19 22 -1 0
BITMAP
007000
00C000
010000
000000
002000
006000
006000
00E000
00F000
01F000
013800
013800
021C00
021C00
040C00
07FE00
080600
080700
180700
100300
300380
FC0FE0
ENDCHAR

STARTCHAR char194
ENCODING 194
SWIDTH 31 0
DWIDTH 19 0
BBX 19 22 -1 0
BITMAP
01F000
03B000
040800
000000
002000
006000
006000
00E000
00F000
01F000
013800
013800
021C00
021C00
040C00
07FE00
080600
080700
180700
100300
300380
FC0FE0
ENDCHAR

STARTCHAR char195
ENCODING 195
SWIDTH 31 0
DWIDTH 19 0
BBX 19 22 -1 0
BITMAP
01C400
03F800
041000
000000
002000
006000
006000
00E000
00F000
01F000
013800
013800
021C00
021C00
040C00
07FE00
080600
080700
180700
100300
300380
FC0FE0
ENDCHAR

STARTCHAR char196
ENCODING 196
SWIDTH 31 0
DWIDTH 19 0
BBX 19 22 -1 0
BITMAP
030C00
030C00
030C00
000000
002000
006000
006000
006000
00F000
00B000
013800
011800
011800
020C00
020C00
07FE00
080600
080300
080300
100380
300380
FC07E0
ENDCHAR

STARTCHAR char197
ENCODING 197
SWIDTH 31 0
DWIDTH 19 0
BBX 19 23 -1 0
BITMAP
006000
009000
009000
006000
000000
002000
006000
006000
00E000
00F000
01F000
013800
033800
021C00
061C00
041C00
07FE00
080E00
080700
180700
100380
300380
FC0FE0
ENDCHAR

STARTCHAR char198
ENCODING 198
SWIDTH 13 0
DWIDTH 24 0
BBX 24 18 -1 0
BITMAP
00FFFC
003C0C
007804
005804
005800
009808
009808
011808
031FF8
021818
07F808
041808
0C1800
081801
181801
101C02
301C06
FCFFFE
ENDCHAR

STARTCHAR char199
ENCODING 199
SWIDTH 28 0
DWIDTH 18 0
BBX 16 23 1 -5
BITMAP
03E2
0E1E
1806
3006
7002
6002
E000
C000
C000
C000
C000
E000
E000
7002
7002
3806
1E0C
07F0
0080
0100
0380
0180
0700
ENDCHAR

STARTCHAR char200
ENCODING 200
SWIDTH 21 0
DWIDTH 16 0
BBX 15 22 0 0
BITMAP
0700
0100
0080
0000
FFFC
3C1C
180C
1804
1800
1800
1810
1810
1FF0
1810
1810
1810
1800
1802
1802
1806
380C
FFFC
ENDCHAR

STARTCHAR char201
ENCODING 201
SWIDTH 21 0
DWIDTH 16 0
BBX 15 22 0 0
BITMAP
01C0
0300
0400
0000
FFFC
3C1C
180C
1804
1800
1800
1810
1810
1FF0
1810
1810
1810
1800
1802
1802
1806
380C
FFFC
ENDCHAR

STARTCHAR char202
ENCODING 202
SWIDTH 21 0
DWIDTH 16 0
BBX 15 22 0 0
BITMAP
0780
06C0
0820
0000
FFFC
3C1C
180C
1804
1800
1800
1810
1810
1FF0
1810
1810
1810
1800
1802
1802
1806
380C
FFFC
ENDCHAR

STARTCHAR char203
ENCODING 203
SWIDTH 21 0
DWIDTH 16 0
BBX 15 22 0 0
BITMAP
0860
1C60
0860
0000
FFFC
3C1C
180C
1804
1800
1800
1810
1810
1FF0
1810
1810
1810
1800
1802
1802
1806
380C
FFFC
ENDCHAR

STARTCHAR char204
ENCODING 204
SWIDTH 32 0
DWIDTH 9 0
BBX 8 22 0 0
BITMAP
70
18
04
00
FF
3C
18
18
18
18
18
18
18
18
18
18
18
18
18
18
38
FF
ENDCHAR

STARTCHAR char205
ENCODING 205
SWIDTH 32 0
DWIDTH 9 0
BBX 8 22 0 0
BITMAP
1C
18
20
00
FF
3C
18
18
18
18
18
18
18
18
18
18
18
18
18
18
38
FF
ENDCHAR

STARTCHAR char206
ENCODING 206
SWIDTH 32 0
DWIDTH 9 0
BBX 8 22 0 0
BITMAP
3C
6E
81
00
FF
3C
18
18
18
18
18
18
18
18
18
18
18
18
18
18
38
FF
ENDCHAR

STARTCHAR char207
ENCODING 207
SWIDTH 32 0
DWIDTH 9 0
BBX 8 22 0 0
BITMAP
C3
C3
C3
00
FF
1C
18
18
18
18
18
18
18
18
18
18
18
18
18
18
18
7F
ENDCHAR

STARTCHAR char208
ENCODING 208
SWIDTH 16 0
DWIDTH 25 0
BBX 0 0 0 0
BITMAP
ENDCHAR

STARTCHAR char209
ENCODING 209
SWIDTH 31 0
DWIDTH 19 0
BBX 19 22 -1 0
BITMAP
01C400
03FC00
041000
000000
FC07E0
3C0180
1E0180
1F0180
1F8180
1B8180
19C180
18E180
187180
187980
183980
181D80
180F80
180700
180700
180300
180100
1E0100
ENDCHAR

STARTCHAR char210
ENCODING 210
SWIDTH 31 0
DWIDTH 19 0
BBX 16 22 1 0
BITMAP
0700
0180
0080
0000
07C0
0C30
1018
3008
600C
600E
C006
C007
C007
C006
C006
C006
6006
600C
700C
3018
1C30
07E0
ENDCHAR

STARTCHAR char211
ENCODING 211
SWIDTH 31 0
DWIDTH 19 0
BBX 16 22 1 0
BITMAP
01C0
0300
0400
0000
07C0
0C30
1018
3008
600C
600E
C006
C007
C007
C006
C006
C006
6006
600C
700C
3018
1C30
07E0
ENDCHAR

STARTCHAR char212
ENCODING 212
SWIDTH 31 0
DWIDTH 19 0
BBX 16 22 1 0
BITMAP
07C0
0EE0
1820
0000
07C0
0C30
1018
3008
600C
600E
C006
C007
C007
C006
C006
C006
6006
600C
700C
3018
1C30
07E0
ENDCHAR

STARTCHAR char213
ENCODING 213
SWIDTH 31 0
DWIDTH 19 0
BBX 16 22 1 0
BITMAP
0710
0FE0
1040
0000
07C0
0C30
1018
3008
600C
600E
C006
C007
C007
C006
C006
C006
6006
600C
700C
3018
1C30
07C0
ENDCHAR

STARTCHAR char214
ENCODING 214
SWIDTH 31 0
DWIDTH 19 0
BBX 16 22 1 0
BITMAP
0C30
0C30
0C30
0000
07C0
0830
1018
2008
6004
6006
C006
C007
C007
C006
C006
C006
6006
6004
6004
3008
1C30
07E0
ENDCHAR

STARTCHAR char215
ENCODING 215
SWIDTH 16 0
DWIDTH 25 0
BBX 0 0 0 0
BITMAP
ENDCHAR

STARTCHAR char216
ENCODING 216
SWIDTH 31 0
DWIDTH 19 0
BBX 15 18 1 0
BITMAP
07C4
0C74
1018
3008
601C
602C
C066
C0C6
C086
C106
C206
E406
6C06
780C
300C
3018
7C30
4FE0
ENDCHAR

STARTCHAR char217
ENCODING 217
SWIDTH 31 0
DWIDTH 19 0
BBX 18 22 0 0
BITMAP
038000
00C000
004000
000000
FE0FC0
780300
300300
300100
300100
300100
300100
300100
300100
300100
300100
300100
300100
300200
380200
1C0600
0E0C00
03F800
ENDCHAR

STARTCHAR char218
ENCODING 218
SWIDTH 31 0
DWIDTH 19 0
BBX 18 22 0 0
BITMAP
00E000
018000
010000
000000
FE0FC0
780300
300300
300100
300100
300100
300100
300100
300100
300100
300100
300100
300100
300200
380200
1C0600
0E0C00
03F800
ENDCHAR

STARTCHAR char219
ENCODING 219
SWIDTH 31 0
DWIDTH 19 0
BBX 18 22 0 0
BITMAP
01E000
037000
041000
000000
FE0FC0
780300
300300
300100
300100
300100
300100
300100
300100
300100
300100
300100
300100
300200
380200
1C0600
0E0C00
03F800
ENDCHAR

STARTCHAR char220
ENCODING 220
SWIDTH 31 0
DWIDTH 19 0
BBX 18 22 0 0
BITMAP
031800
031800
031800
000000
FE0FC0
380380
300300
300300
300300
300300
300300
300300
300300
300300
300300
300300
300300
300300
380300
1C0200
0E0C00
07F800
ENDCHAR

STARTCHAR char221
ENCODING 221
SWIDTH 16 0
DWIDTH 25 0
BBX 0 0 0 0
BITMAP
ENDCHAR

STARTCHAR char222
ENCODING 222
SWIDTH 16 0
DWIDTH 25 0
BBX 0 0 0 0
BITMAP
ENDCHAR

STARTCHAR char223
ENCODING 223
SWIDTH 10 0
DWIDTH 13 0
BBX 12 18 0 0
BITMAP
0F00
18C0
30E0
3060
3060
3060
30C0
3300
31C0
30E0
3070
3030
3030
3030
3030
3620
3660
FBC0
ENDCHAR

STARTCHAR char224
ENCODING 224
SWIDTH 3 0
DWIDTH 11 0
BBX 10 18 1 0
BITMAP
3000
3000
1000
0800
0000
0000
3E00
4300
4300
4300
0700
1B00
6300
C300
C300
C300
EFC0
7380
ENDCHAR

STARTCHAR char225
ENCODING 225
SWIDTH 3 0
DWIDTH 11 0
BBX 10 18 1 0
BITMAP
0600
0C00
0800
1800
0000
0000
3E00
4300
4300
4300
0700
1B00
6300
C300
C300
C300
EFC0
7380
ENDCHAR

STARTCHAR char226
ENCODING 226
SWIDTH 3 0
DWIDTH 11 0
BBX 10 18 1 0
BITMAP
1C00
3C00
2600
4300
0000
0000
3E00
4300
4300
4300
0700
1B00
6300
C300
C300
C300
EFC0
7380
ENDCHAR

STARTCHAR char227
ENCODING 227
SWIDTH 3 0
DWIDTH 11 0
BBX 10 18 1 0
BITMAP
0080
3880
7F00
8000
0000
0000
3E00
4300
4300
4300
0700
1B00
6300
C300
C300
C300
EFC0
7380
ENDCHAR

STARTCHAR char228
ENCODING 228
SWIDTH 3 0
DWIDTH 11 0
BBX 10 17 1 0
BITMAP
2300
6300
2300
0000
0000
3E00
4300
4300
4300
0700
1B00
6300
C300
C300
C300
EFC0
7380
ENDCHAR

STARTCHAR char229
ENCODING 229
SWIDTH 3 0
DWIDTH 11 0
BBX 10 18 1 0
BITMAP
1C00
3200
2200
3600
1C00
0000
3E00
4300
4300
4300
0700
1B00
6300
C300
C300
C300
EFC0
7380
ENDCHAR

STARTCHAR char230
ENCODING 230
SWIDTH 28 0
DWIDTH 18 0
BBX 17 12 0 0
BITMAP
3F7E00
61C700
618300
618300
03FF80
1D8000
318000
618080
C1C080
E1E100
7EFE00
387C00
ENDCHAR

STARTCHAR char231
ENCODING 231
SWIDTH 3 0
DWIDTH 11 0
BBX 9 17 1 -5
BITMAP
1E00
2380
4180
C000
C000
C000
C000
C080
E080
7100
3F00
1C00
0800
0800
1C00
0C00
3800
ENDCHAR

STARTCHAR char232
ENCODING 232
SWIDTH 6 0
DWIDTH 12 0
BBX 11 18 0 0
BITMAP
3800
1800
0C00
0400
0000
0000
1F00
6180
60C0
C0C0
FFC0
C000
C000
E020
E020
7040
3F80
1F00
ENDCHAR

STARTCHAR char233
ENCODING 233
SWIDTH 6 0
DWIDTH 12 0
BBX 11 18 0 0
BITMAP
0300
0600
0600
0400
0000
0000
1F00
6180
60C0
C0C0
FFC0
C000
C000
E020
E020
7040
3F80
1F00
ENDCHAR

STARTCHAR char234
ENCODING 234
SWIDTH 6 0
DWIDTH 12 0
BBX 11 18 0 0
BITMAP
0E00
1E00
3300
6080
0000
0000
1F00
6180
60C0
C0C0
FFC0
C000
C000
E020
E020
7040
3F80
1F00
ENDCHAR

STARTCHAR char235
ENCODING 235
SWIDTH 6 0
DWIDTH 12 0
BBX 10 17 1 0
BITMAP
6300
6300
6300
0000
0000
1E00
6100
4180
C080
FF80
8000
8000
C040
C040
6080
3F00
1E00
ENDCHAR

STARTCHAR char236
ENCODING 236
SWIDTH 21 0
DWIDTH 6 0
BBX 6 18 0 0
BITMAP
C0
60
20
20
00
10
30
F0
30
30
30
30
30
30
30
30
30
FC
ENDCHAR

STARTCHAR char237
ENCODING 237
SWIDTH 21 0
DWIDTH 6 0
BBX 6 18 0 0
BITMAP
1C
18
30
20
00
10
30
F0
30
30
30
30
30
30
30
30
30
FC
ENDCHAR

STARTCHAR char238
ENCODING 238
SWIDTH 21 0
DWIDTH 6 0
BBX 8 18 -1 0
BITMAP
38
3C
66
42
00
08
18
78
18
18
18
18
18
18
18
18
18
7E
ENDCHAR

STARTCHAR char239
ENCODING 239
SWIDTH 21 0
DWIDTH 6 0
BBX 8 17 -1 0
BITMAP
C6
C7
C6
00
00
18
78
18
18
18
18
18
18
18
18
18
7E
ENDCHAR

STARTCHAR char241
ENCODING 241
SWIDTH 13 0
DWIDTH 14 0
BBX 13 18 0 0
BITMAP
0040
1E40
3FC0
2000
0000
1000
13C0
F7E0
3860
3060
3060
3060
3060
3060
3060
3060
3060
FDF8
ENDCHAR

STARTCHAR char242
ENCODING 242
SWIDTH 10 0
DWIDTH 13 0
BBX 11 18 1 0
BITMAP
3800
1800
0800
0400
0000
0000
3F80
61C0
60C0
C0E0
C060
C060
C060
C060
C040
60C0
3180
1F00
ENDCHAR

STARTCHAR char243
ENCODING 243
SWIDTH 10 0
DWIDTH 13 0
BBX 11 18 1 0
BITMAP
0300
0600
0400
0C00
0000
0000
3F80
61C0
60C0
C0E0
C060
C060
C060
C060
C040
60C0
3180
1F00
ENDCHAR

STARTCHAR char244
ENCODING 244
SWIDTH 10 0
DWIDTH 13 0
BBX 11 18 1 0
BITMAP
0E00
1E00
1300
2180
0000
0000
3F80
61C0
60C0
C0E0
C060
C060
C060
C060
C040
60C0
3180
1F00
ENDCHAR

STARTCHAR char245
ENCODING 245
SWIDTH 10 0
DWIDTH 13 0
BBX 11 18 1 0
BITMAP
0080
3C80
3F80
4000
0000
0000
3F80
61C0
60C0
C0E0
C060
C060
C060
C060
C040
60C0
3180
1F00
ENDCHAR

STARTCHAR char246
ENCODING 246
SWIDTH 10 0
DWIDTH 13 0
BBX 11 17 1 0
BITMAP
3180
7380
3180
0000
0000
3F80
60C0
C040
C060
C060
C060
C060
C060
C060
6040
7080
1F00
ENDCHAR

STARTCHAR char247
ENCODING 247
SWIDTH 13 0
DWIDTH 14 0
BBX 12 9 0 2
BITMAP
0600
0600
0600
0000
FFF0
0000
0600
0600
0600
ENDCHAR

STARTCHAR char248
ENCODING 248
SWIDTH 10 0
DWIDTH 13 0
BBX 11 14 1 -1
BITMAP
0040
3F80
61C0
61C0
C2E0
C260
C460
C860
C860
D0E0
70C0
3180
5F00
4000
ENDCHAR

STARTCHAR char249
ENCODING 249
SWIDTH 13 0
DWIDTH 14 0
BBX 13 18 0 0
BITMAP
0C00
0C00
0600
0200
0000
0000
F1E0
3060
3060
3060
3060
3060
3060
3060
3060
30E0
3F78
1E60
ENDCHAR

STARTCHAR char250
ENCODING 250
SWIDTH 13 0
DWIDTH 14 0
BBX 13 18 0 0
BITMAP
0180
0300
0300
0200
0000
0000
F1E0
3060
3060
3060
3060
3060
3060
3060
3060
30E0
3F78
1E60
ENDCHAR

STARTCHAR char251
ENCODING 251
SWIDTH 13 0
DWIDTH 14 0
BBX 13 18 0 0
BITMAP
0700
0F00
0980
1040
0000
0000
F1E0
3060
3060
3060
3060
3060
3060
3060
3060
30E0
3F78
1E60
ENDCHAR

STARTCHAR char252
ENCODING 252
SWIDTH 13 0
DWIDTH 14 0
BBX 13 17 0 0
BITMAP
18C0
19C0
1880
0000
0000
F1E0
3060
3060
3060
3060
3060
3060
3060
3060
30E0
1F78
1E60
ENDCHAR

STARTCHAR char255
ENCODING 255
SWIDTH 6 0
DWIDTH 12 0
BBX 12 21 0 -4
BITMAP
3180
3180
3180
0000
0000
F9F0
3040
3040
1040
1880
1880
0900
0D00
0E00
0E00
0400
0400
0400
0800
7000
7000
ENDCHAR
ENDFONT
